<?xml version="1.0" encoding="UTF-8"?>
<!-- Created with Inkscape (http://www.inkscape.org/) -->
<svg width="1e3" height="1e3" version="1.1" viewBox="0 0 264.58 264.58" xmlns="http://www.w3.org/2000/svg">
 <g transform="matrix(8.6354 0 0 8.6354 -354.85 -792.76)" fill="#28bcff" stroke-width=".1158">
  <path transform="scale(.26458)" d="m210.73 357.03a31.693 31.693 0 0 0-28.924 18.787 22.48 22.48 0 0 0-4.0215-0.36133 22.48 22.48 0 0 0-22.48 22.479 22.48 22.48 0 0 0 22.48 22.48 22.48 22.48 0 0 0 0.12305-4e-3v4e-3h65.643v-4e-3a27.68 27.68 0 0 0 27.557-27.676 27.68 27.68 0 0 0-27.68-27.68 27.68 27.68 0 0 0-9.7676 1.791 31.693 31.693 0 0 0-22.93-9.8164z"/>
  <path transform="scale(.26458)" d="m191.91 424.19-16.477 28.537h8.7285l16.477-28.537zm19.332 0-16.477 28.537h8.7285l16.477-28.537zm19.332 0-16.477 28.537h8.7266l16.477-28.537z"/>
 </g>
</svg>
